<svg width="168" height="50" viewBox="0 0 168 50" fill="none" xmlns="http://www.w3.org/2000/svg">
<g clip-path="url(#clip0_204_148881)">
<path fill-rule="evenodd" clip-rule="evenodd" d="M120.206 18.2646C120.315 18.2646 120.315 18.3731 120.315 18.4816V22.7115C120.315 22.8308 120.206 22.9393 120.098 22.9393C119.534 22.7115 118.2 22.2668 116.302 22.3861C115.195 22.3861 114.078 22.603 113.08 22.9393C112.961 22.9393 112.961 23.0477 112.961 23.1562V38.7527C112.961 38.8612 112.852 38.9696 112.744 38.9696H108.286C108.178 38.9696 108.059 38.8612 108.059 38.7527V20.0434C108.059 19.9349 108.059 19.9349 108.178 19.8156C108.731 19.4902 111.855 17.82 116.193 17.82C118.2 17.82 119.761 18.1453 120.206 18.2646ZM104.718 27.1692V29.3926C104.718 29.5119 104.61 29.6204 104.501 29.6204H90.5748C90.4555 29.6204 90.3471 29.7289 90.3471 29.8373C90.5748 31.3991 91.2364 32.7332 92.462 33.7419C93.6876 34.6312 95.141 35.1844 96.8113 35.1844C100.152 35.1844 102.711 33.8503 103.492 33.2972C103.612 33.1779 103.829 33.2972 103.829 33.5141V37.2994C103.829 37.4187 103.829 37.4187 103.72 37.4187C103.275 37.744 100.824 39.3059 96.4751 39.3059C93.243 39.3059 90.5748 38.308 88.5683 36.41C86.5618 34.5228 85.564 31.8438 85.564 28.6226C85.564 25.3905 86.5618 22.7115 88.4599 20.5965C90.2386 18.6009 92.7983 17.5922 95.5857 17.5922C101.377 17.5922 104.718 21.1605 104.718 27.1692ZM99.9349 26.4967C100.043 26.4967 100.152 26.3883 100.152 26.2798C99.9349 23.2755 98.3731 21.7137 95.5857 21.7137C93.1345 21.7137 91.2364 23.3839 90.5748 26.1714C90.5748 26.2798 90.6833 26.3883 90.7918 26.3883L99.9349 26.4967ZM146.616 32.961C146.616 34.9566 145.835 36.6269 144.393 37.744C143.048 38.7527 141.161 39.3059 138.818 39.3059C135.033 39.3059 132.918 37.9718 132.473 37.6356C132.354 37.6356 132.354 37.6356 132.354 37.5271V33.4056C132.354 33.2863 132.581 33.1779 132.69 33.2863C133.471 33.9588 135.922 35.5206 138.709 35.5206C140.152 35.5206 141.941 35.0759 141.941 33.2863C141.941 31.6161 140.716 31.0629 138.145 30.4013C133.698 29.3926 132.017 27.5054 132.017 23.9371C132.137 20.8243 134.469 18.1453 137.701 17.8091C138.265 17.7007 138.926 17.7007 139.49 17.7007C142.722 17.7007 144.946 18.9262 145.39 19.2625C145.499 19.2625 145.499 19.2625 145.499 19.3709V23.3839C145.499 23.4924 145.282 23.6009 145.174 23.4924C144.393 22.9393 142.158 21.4859 139.599 21.5944C137.701 21.5944 136.594 22.4946 136.594 23.8286C136.594 25.0542 137.375 25.7158 139.707 26.3883C142.158 26.833 143.72 27.6139 144.837 28.6117C145.944 29.7289 146.508 31.0629 146.616 32.961ZM126.009 15.0325C124.338 15.0325 122.993 13.6876 122.993 12.0282C122.993 10.3579 124.338 9.01302 126.009 9.01302C127.668 9.01302 129.013 10.3579 129.013 12.0282C129.013 13.6876 127.668 15.0325 126.009 15.0325ZM123.557 38.6334V18.2538C123.557 18.1453 123.666 18.0369 123.774 18.0369H128.232C128.351 18.0369 128.46 18.1453 128.46 18.2538V38.6334C128.46 38.7527 128.351 38.8612 128.232 38.8612H123.774C123.666 38.8612 123.557 38.7527 123.557 38.6334ZM158.764 27.7223L167.668 38.6334C167.787 38.7527 167.787 38.9696 167.56 38.9696H162.321L162.213 38.8612L154.751 29.6204C154.642 29.5011 154.414 29.5011 154.414 29.7289V38.6334C154.414 38.7527 154.306 38.8612 154.197 38.8612H149.74C149.62 38.8612 149.512 38.7527 149.512 38.6334V11.2473C149.512 11.128 149.62 11.0195 149.74 11.0195H154.197C154.306 11.0195 154.414 11.128 154.414 11.2473V25.7158C154.414 25.8351 154.642 25.9436 154.751 25.8351L161.876 18.1453C161.876 18.0369 161.996 18.0369 161.996 18.0369H167.343C167.451 18.0369 167.56 18.2538 167.451 18.3731L158.764 27.3861C158.648 27.5018 158.648 27.6139 158.764 27.7223ZM83.2321 11.128H88.1345C88.3514 11.128 88.4599 11.3557 88.3514 11.4642L77.2126 36.8547C75.7592 40.1952 70.9761 40.1952 69.5228 36.8547L58.3839 11.4642C58.3839 11.2473 58.4924 11.128 58.6117 11.128H63.6226L73.1996 32.961C73.1996 33.0694 73.4273 33.0694 73.5358 32.961L83.1128 11.2473C83.2321 11.128 83.2321 11.128 83.2321 11.128ZM3.68764 12.0282C4.02386 11.4642 4.68547 11.128 5.35792 11.128H13.2646C13.6009 11.128 13.7093 11.4642 13.6009 11.692L11.4859 16.4751C11.3666 16.5835 11.2581 16.7028 11.1497 16.7028H2.01736C1.68113 16.7028 1.57267 16.3666 1.68113 16.1388C2.23427 14.5879 2.90673 13.243 3.68764 12.0282ZM10.705 5.56399C10.3688 5.56399 10.141 5.01085 10.4772 4.78308C14.718 1.77874 19.9458 0 25.6291 0C31.3124 0 36.4425 1.77874 40.6725 4.89154C41.0087 5.11931 40.7809 5.56399 40.4447 5.56399H10.705ZM17.6139 44.6529C17.7223 44.5336 17.8417 44.4252 17.9501 44.4252L40.3471 44.5336C40.6725 44.5336 40.9002 44.9783 40.564 45.2061C36.3341 48.2104 31.0954 49.9892 25.5206 49.9892C22.2957 49.9892 19.2878 49.4324 16.4967 48.3189C16.2798 48.2104 16.1714 47.9935 16.2798 47.7657L17.6139 44.6529ZM20.4013 38.308L22.5163 33.5141C22.6247 33.4056 22.7332 33.2972 22.8525 33.2972L49.0239 33.4056C49.3601 33.4056 49.4794 33.7419 49.3601 33.9696C48.8069 35.4122 48.1345 36.7462 47.3536 38.0803C47.0282 38.6443 46.3557 38.9805 45.6833 38.9805L20.846 38.8612C20.5098 38.8612 20.282 38.5249 20.4013 38.308ZM50.9219 22.603C51.0304 23.3839 51.0304 24.1649 51.0304 25.0542C51.0304 25.8351 51.0304 26.7245 50.9219 27.5054C50.9219 27.7332 50.705 27.8417 50.4772 27.8417L25.6291 27.7332C25.3037 27.7332 25.1844 27.397 25.3037 27.1692L26.6377 24.0564C27.1909 22.9393 28.308 22.1584 29.5336 22.1584H50.4772C50.705 22.2777 50.9219 22.4946 50.9219 22.603Z" fill="black"/>
<path d="M49.013 16.7028H25.846C24.6204 16.7028 23.5033 17.3753 23.0586 18.4816L12.8091 41.757C12.4729 42.538 11.8113 42.9826 11.0304 42.9826C10.3579 42.9826 9.57701 42.538 9.25163 41.757C7.12581 36.974 3.90456 29.5119 3.2321 28.0586C3.2321 27.9501 3.00434 27.8416 2.89588 27.8416H0.553145C0.336226 27.8416 0.10846 27.7223 0.10846 27.5054C0 26.616 0 25.8351 0 25.0542C0 24.1649 0 23.3839 0.10846 22.4946C0.227766 22.2668 0.336226 22.1583 0.553145 22.1583H5.01085C6.23644 22.1583 7.35358 22.8308 7.79826 23.9371L10.8026 30.846C10.9219 30.9544 10.9219 30.9544 11.0304 30.9544C11.1388 30.9544 11.2473 30.9544 11.2473 30.846L19.1649 12.9176C19.718 11.8004 20.7267 11.1388 21.9414 11.1388H45.6725C46.3449 11.1388 47.0174 11.4642 47.3427 12.0282C48.1236 13.3623 48.7961 14.6963 49.3492 16.1497C49.4685 16.3666 49.2408 16.7028 49.013 16.7028Z" fill="black"/>
</g>
<defs>
<clipPath id="clip0_204_148881">
<rect width="167.787" height="50" fill="white"/>
</clipPath>
</defs>
</svg>
